# xmcd
#
# Track frame offsets: 
#        150
#        19232
#        38238
#        80380
#        98268
#        123732
#        139103
#        168794
#        188381
#
# Disc length: 2936 seconds
#
# Revision: 1
# Processed by: cddbd v1.5.2PL0 Copyright (c) Steve Scherf et al.
# Submitted via: ExactAudioCopy v0.99pb4
#
DISCID=630b7609
DTITLE=Larry Miller - Unfinished Business
DYEAR=2010
DGENRE=Blues
TTITLE0=Mad Dog
TTITLE1=As Blue as it Gets
TTITLE2=Cruel Old World
TTITLE3=Still Aint Done With the Blues
TTITLE4=Unfinished Business 
TTITLE5=Covering Me 
TTITLE6=Delilah
TTITLE7=Gamblers Hill 
TTITLE8=Helter Skelter to Hell 
EXTD=
EXTT0=
EXTT1=
EXTT2=
EXTT3=
EXTT4=
EXTT5=
EXTT6=
EXTT7=
EXTT8=
PLAYORDER=
